<mxfile host="drawio-plugin" agent="Mozilla/5.0 (Windows NT 10.0; Win64; x64) AppleWebKit/537.36 (KHTML, like Gecko) Chrome/122.0.0.0 Safari/537.36" modified="2025-04-18T14:39:31.366Z" version="22.1.22" etag="8UcgGAVUhbn8cTCkmkPl" type="embed">
  <diagram name="Page-1" id="GBGmVqDWgZDGhen0g_vq">
    <mxGraphModel dx="1087" dy="752" grid="1" gridSize="10" guides="1" tooltips="1" connect="1" arrows="1" fold="1" page="1" pageScale="1" pageWidth="1600" pageHeight="900" math="0" shadow="0">
      <root>
        <mxCell id="0" />
        <mxCell id="1" parent="0" />
        <object label="Context" weatherState="WeatherState" id="OVgkkTsfn2CKIyNb1T31-11">
          <mxCell style="swimlane;fontStyle=1;align=center;verticalAlign=top;childLayout=stackLayout;horizontal=1;startSize=26;horizontalStack=0;resizeParent=1;resizeParentMax=0;resizeLast=0;collapsible=1;marginBottom=0;whiteSpace=wrap;html=1;" parent="1" vertex="1">
            <mxGeometry x="690" y="310" width="260" height="100" as="geometry" />
          </mxCell>
        </object>
        <mxCell id="OVgkkTsfn2CKIyNb1T31-12" value="- weatherParser" style="text;strokeColor=none;fillColor=none;align=left;verticalAlign=top;spacingLeft=4;spacingRight=4;overflow=hidden;rotatable=0;points=[[0,0.5],[1,0.5]];portConstraint=eastwest;whiteSpace=wrap;html=1;" parent="OVgkkTsfn2CKIyNb1T31-11" vertex="1">
          <mxGeometry y="26" width="260" height="24" as="geometry" />
        </mxCell>
        <mxCell id="OVgkkTsfn2CKIyNb1T31-13" value="" style="line;strokeWidth=1;fillColor=none;align=left;verticalAlign=middle;spacingTop=-1;spacingLeft=3;spacingRight=3;rotatable=0;labelPosition=right;points=[];portConstraint=eastwest;strokeColor=inherit;" parent="OVgkkTsfn2CKIyNb1T31-11" vertex="1">
          <mxGeometry y="50" width="260" height="8" as="geometry" />
        </mxCell>
        <mxCell id="OVgkkTsfn2CKIyNb1T31-14" value="+ setParser(weatherParser)&lt;div&gt;&lt;div style=&quot;forced-color-adjust: none; box-shadow: none !important;&quot;&gt;+ readData(data: string) : WeatherState&lt;/div&gt;&lt;div style=&quot;forced-color-adjust: none; box-shadow: none !important;&quot;&gt;&lt;div style=&quot;forced-color-adjust: none; box-shadow: none !important;&quot;&gt;&lt;br style=&quot;forced-color-adjust: none; color: rgb(255, 255, 255); background-color: rgb(27, 29, 30); box-shadow: none !important;&quot;&gt;&lt;/div&gt;&lt;/div&gt;&lt;/div&gt;" style="text;strokeColor=none;fillColor=none;align=left;verticalAlign=top;spacingLeft=4;spacingRight=4;overflow=hidden;rotatable=0;points=[[0,0.5],[1,0.5]];portConstraint=eastwest;whiteSpace=wrap;html=1;" parent="OVgkkTsfn2CKIyNb1T31-11" vertex="1">
          <mxGeometry y="58" width="260" height="42" as="geometry" />
        </mxCell>
        <mxCell id="OVgkkTsfn2CKIyNb1T31-15" value="&lt;p style=&quot;margin:0px;margin-top:4px;text-align:center;&quot;&gt;&lt;i&gt;&amp;lt;&amp;lt;Interface&amp;gt;&amp;gt;&lt;/i&gt;&lt;br&gt;&lt;b&gt;WeatherParserStrategy&lt;/b&gt;&lt;/p&gt;&lt;hr size=&quot;1&quot; style=&quot;border-style:solid;&quot;&gt;&lt;p style=&quot;margin:0px;margin-left:4px;&quot;&gt;+ parse(data: string) : WeatherState&lt;br&gt;&lt;br&gt;&lt;/p&gt;" style="verticalAlign=top;align=left;overflow=fill;html=1;whiteSpace=wrap;" parent="1" vertex="1">
          <mxGeometry x="1110" y="330" width="210" height="70" as="geometry" />
        </mxCell>
        <mxCell id="1TGPjlGgqZZOH0j4-UuG-2" value="" style="endArrow=open;html=1;endSize=12;startArrow=diamondThin;startSize=14;startFill=0;edgeStyle=orthogonalEdgeStyle;align=left;verticalAlign=bottom;rounded=0;" parent="1" edge="1">
          <mxGeometry x="-1" y="3" relative="1" as="geometry">
            <mxPoint x="950" y="350" as="sourcePoint" />
            <mxPoint x="1110" y="350" as="targetPoint" />
          </mxGeometry>
        </mxCell>
        <mxCell id="1TGPjlGgqZZOH0j4-UuG-3" value="JSONParser" style="swimlane;fontStyle=1;align=center;verticalAlign=top;childLayout=stackLayout;horizontal=1;startSize=26;horizontalStack=0;resizeParent=1;resizeParentMax=0;resizeLast=0;collapsible=1;marginBottom=0;whiteSpace=wrap;html=1;" parent="1" vertex="1">
          <mxGeometry x="980" y="540" width="220" height="70" as="geometry" />
        </mxCell>
        <mxCell id="1TGPjlGgqZZOH0j4-UuG-4" value="&lt;div&gt;&lt;div&gt;+ parse(data: string) : WeatherState&lt;br&gt;&lt;/div&gt;&lt;/div&gt;" style="text;strokeColor=none;fillColor=none;align=left;verticalAlign=top;spacingLeft=4;spacingRight=4;overflow=hidden;rotatable=0;points=[[0,0.5],[1,0.5]];portConstraint=eastwest;whiteSpace=wrap;html=1;" parent="1TGPjlGgqZZOH0j4-UuG-3" vertex="1">
          <mxGeometry y="26" width="220" height="44" as="geometry" />
        </mxCell>
        <mxCell id="1TGPjlGgqZZOH0j4-UuG-8" value="XMLParser" style="swimlane;fontStyle=1;align=center;verticalAlign=top;childLayout=stackLayout;horizontal=1;startSize=26;horizontalStack=0;resizeParent=1;resizeParentMax=0;resizeLast=0;collapsible=1;marginBottom=0;whiteSpace=wrap;html=1;" parent="1" vertex="1">
          <mxGeometry x="1280" y="540" width="210" height="70" as="geometry" />
        </mxCell>
        <mxCell id="1TGPjlGgqZZOH0j4-UuG-9" value="&lt;div&gt;&lt;div&gt;+ parse(data: string) : WeatherState&lt;br&gt;&lt;/div&gt;&lt;/div&gt;" style="text;strokeColor=none;fillColor=none;align=left;verticalAlign=top;spacingLeft=4;spacingRight=4;overflow=hidden;rotatable=0;points=[[0,0.5],[1,0.5]];portConstraint=eastwest;whiteSpace=wrap;html=1;" parent="1TGPjlGgqZZOH0j4-UuG-8" vertex="1">
          <mxGeometry y="26" width="210" height="44" as="geometry" />
        </mxCell>
        <mxCell id="1TGPjlGgqZZOH0j4-UuG-18" value="" style="endArrow=block;dashed=1;endFill=0;endSize=12;html=1;rounded=0;entryX=0.25;entryY=1;entryDx=0;entryDy=0;exitX=0.5;exitY=0;exitDx=0;exitDy=0;" parent="1" source="1TGPjlGgqZZOH0j4-UuG-3" target="OVgkkTsfn2CKIyNb1T31-15" edge="1">
          <mxGeometry width="160" relative="1" as="geometry">
            <mxPoint x="810" y="520" as="sourcePoint" />
            <mxPoint x="970" y="520" as="targetPoint" />
          </mxGeometry>
        </mxCell>
        <mxCell id="1TGPjlGgqZZOH0j4-UuG-20" value="" style="endArrow=block;dashed=1;endFill=0;endSize=12;html=1;rounded=0;entryX=0.75;entryY=1;entryDx=0;entryDy=0;exitX=0.5;exitY=0;exitDx=0;exitDy=0;" parent="1" source="1TGPjlGgqZZOH0j4-UuG-8" target="OVgkkTsfn2CKIyNb1T31-15" edge="1">
          <mxGeometry width="160" relative="1" as="geometry">
            <mxPoint x="810" y="520" as="sourcePoint" />
            <mxPoint x="970" y="520" as="targetPoint" />
          </mxGeometry>
        </mxCell>
      </root>
    </mxGraphModel>
  </diagram>
</mxfile>
